<svg width="current" height="current" viewBox="0 0 24 24" fill="none" xmlns="http://www.w3.org/2000/svg">
<path fill-rule="evenodd" clip-rule="evenodd" d="M8.12903 5.23077C7.87237 5.23077 7.62622 5.33883 7.44474 5.53117C7.26325 5.72352 7.16129 5.98439 7.16129 6.25641V18.1888L11.6625 14.7813C11.8644 14.6285 12.1356 14.6285 12.3375 14.7813L16.8387 18.1888V6.25641C16.8387 5.98439 16.7368 5.72352 16.5553 5.53117C16.3738 5.33883 16.1276 5.23077 15.871 5.23077H8.12903ZM6.62358 4.66089C7.02285 4.23773 7.56438 4 8.12903 4H15.871C16.4356 4 16.9772 4.23773 17.3764 4.66089C17.7757 5.08405 18 5.65797 18 6.25641V19.3846C18 19.6151 17.8784 19.8263 17.685 19.9318C17.4917 20.0373 17.2589 20.0194 17.0819 19.8854L12 16.0383L6.91814 19.8854C6.74115 20.0194 6.50835 20.0373 6.31495 19.9318C6.12156 19.8263 6 19.6151 6 19.3846V6.25641C6 5.65797 6.22431 5.08405 6.62358 4.66089Z" fill="#FEFEFE"/>
</svg>
