<svg width="50" height="50" viewBox="0 0 50 50" fill="none" xmlns="http://www.w3.org/2000/svg">
<path d="M18.7498 20.8332L26.3413 26.5267C26.7597 26.8406 27.3494 26.7789 27.6939 26.3853L41.6665 10.4165" stroke="#AACD06" stroke-width="2" stroke-linecap="round"/>
<path d="M43.75 25C43.75 28.9177 42.5228 32.737 40.2409 35.9215C37.9589 39.1059 34.7368 41.4956 31.027 42.7549C27.3172 44.0142 23.3062 44.0799 19.5572 42.9426C15.8082 41.8054 12.5096 39.5224 10.1246 36.4143C7.73969 33.3062 6.38822 29.5291 6.26004 25.6135C6.13186 21.6979 7.23339 17.8405 9.40994 14.5831C11.5865 11.3256 14.7287 8.83177 18.3953 7.45176C22.0619 6.07176 26.0687 5.87492 29.8529 6.88889" stroke="#AACD06" stroke-width="2" stroke-linecap="round"/>
</svg>
