<svg width="20" height="20" viewBox="0 0 20 20" fill="none" xmlns="http://www.w3.org/2000/svg">
<circle cx="6.66634" cy="9.16683" r="0.833333" fill="#818181"/>
<circle cx="10.0003" cy="9.16683" r="0.833333" fill="#818181"/>
<ellipse cx="13.3333" cy="9.16683" rx="0.833333" ry="0.833333" fill="#818181"/>
<path d="M16.1046 4.81493L16.5203 4.53714V4.53714L16.1046 4.81493ZM16.1046 13.5187L16.5203 13.7965V13.7965L16.1046 13.5187ZM15.1849 14.4384L14.9071 14.0227L15.1849 14.4384ZM11.6663 14.999L11.6642 14.499C11.3889 14.5002 11.1663 14.7237 11.1663 14.999H11.6663ZM11.6663 15.0002L12.1136 15.2238C12.1483 15.1543 12.1663 15.0778 12.1663 15.0002H11.6663ZM10.8941 16.5446L10.4469 16.321L10.8941 16.5446ZM8.33301 15.0002H7.83301C7.83301 15.0778 7.85108 15.1543 7.88579 15.2238L8.33301 15.0002ZM8.33301 14.999H8.83301C8.83301 14.7237 8.61048 14.5002 8.33519 14.499L8.33301 14.999ZM4.81444 14.4384L5.09223 14.0227H5.09222L4.81444 14.4384ZM3.89478 13.5187L3.47904 13.7965H3.47904L3.89478 13.5187ZM3.89478 4.81493L4.31051 5.09271L3.89478 4.81493ZM4.81444 3.89526L5.09223 4.311L4.81444 3.89526ZM15.1849 3.89526L15.4627 3.47953V3.47953L15.1849 3.89526ZM17.1663 9.16683C17.1663 8.00685 17.1669 7.09923 17.0936 6.37777C17.0193 5.64795 16.8652 5.05336 16.5203 4.53714L15.6888 5.09271C15.9057 5.41724 16.0325 5.82822 16.0987 6.47897C16.1657 7.13808 16.1663 7.98604 16.1663 9.16683H17.1663ZM16.5203 13.7965C16.8652 13.2803 17.0193 12.6857 17.0936 11.9559C17.1669 11.2344 17.1663 10.3268 17.1663 9.16683H16.1663C16.1663 10.3476 16.1657 11.1956 16.0987 11.8547C16.0325 12.5054 15.9057 12.9164 15.6888 13.2409L16.5203 13.7965ZM15.4627 14.8541C15.8813 14.5745 16.2406 14.2151 16.5203 13.7965L15.6888 13.2409C15.4821 13.5503 15.2165 13.8159 14.9071 14.0227L15.4627 14.8541ZM11.6685 15.499C12.5652 15.4951 13.2925 15.4781 13.8929 15.3951C14.5014 15.311 15.0118 15.1554 15.4627 14.8541L14.9071 14.0227C14.6236 14.2121 14.2737 14.3329 13.756 14.4045C13.2303 14.4772 12.5656 14.4951 11.6642 14.499L11.6685 15.499ZM12.1663 15.0002V14.999H11.1663V15.0002H12.1663ZM11.3413 16.7682L12.1136 15.2238L11.2191 14.7766L10.4469 16.321L11.3413 16.7682ZM8.65803 16.7682C9.21082 17.8738 10.7885 17.8738 11.3413 16.7682L10.4469 16.321C10.2626 16.6896 9.73672 16.6896 9.55246 16.321L8.65803 16.7682ZM7.88579 15.2238L8.65803 16.7682L9.55246 16.321L8.78022 14.7766L7.88579 15.2238ZM7.83301 14.999V15.0002H8.83301V14.999H7.83301ZM4.53665 14.8541C4.98754 15.1554 5.49795 15.311 6.1064 15.3951C6.70682 15.4781 7.43416 15.4951 8.33083 15.499L8.33519 14.499C7.43377 14.4951 6.76906 14.4772 6.24333 14.4045C5.72564 14.3329 5.3758 14.2121 5.09223 14.0227L4.53665 14.8541ZM3.47904 13.7965C3.75872 14.2151 4.11809 14.5745 4.53666 14.8541L5.09222 14.0227C4.78285 13.8159 4.51723 13.5503 4.31051 13.2409L3.47904 13.7965ZM2.83301 9.16683C2.83301 10.3268 2.8324 11.2344 2.9058 11.9559C2.98004 12.6857 3.13411 13.2803 3.47904 13.7965L4.31051 13.2409C4.09367 12.9164 3.96686 12.5054 3.90066 11.8547C3.83361 11.1956 3.83301 10.3476 3.83301 9.16683H2.83301ZM3.47904 4.53714C3.13411 5.05336 2.98004 5.64795 2.9058 6.37777C2.8324 7.09923 2.83301 8.00685 2.83301 9.16683H3.83301C3.83301 7.98604 3.83361 7.13808 3.90066 6.47897C3.96686 5.82822 4.09367 5.41724 4.31051 5.09271L3.47904 4.53714ZM4.53666 3.47953C4.11809 3.7592 3.75872 4.11858 3.47904 4.53714L4.31051 5.09271C4.51723 4.78334 4.78285 4.51771 5.09223 4.311L4.53666 3.47953ZM9.16634 2.8335C8.00636 2.8335 7.09874 2.83289 6.37728 2.90628C5.64746 2.98053 5.05288 3.1346 4.53666 3.47953L5.09223 4.311C5.41675 4.09416 5.82773 3.96735 6.47848 3.90115C7.13759 3.8341 7.98555 3.8335 9.16634 3.8335V2.8335ZM10.833 2.8335H9.16634V3.8335H10.833V2.8335ZM15.4627 3.47953C14.9465 3.1346 14.3519 2.98053 13.6221 2.90628C12.9006 2.83289 11.993 2.8335 10.833 2.8335V3.8335C12.0138 3.8335 12.8618 3.8341 13.5209 3.90115C14.1716 3.96735 14.5826 4.09416 14.9071 4.311L15.4627 3.47953ZM16.5203 4.53714C16.2406 4.11858 15.8813 3.7592 15.4627 3.47953L14.9071 4.311C15.2165 4.51771 15.4821 4.78334 15.6888 5.09271L16.5203 4.53714Z" fill="#818181"/>
</svg>
