<svg width="20" height="20" viewBox="0 0 20 20" fill="none" xmlns="http://www.w3.org/2000/svg">
<ellipse cx="6.66658" cy="9.16659" rx="0.833333" ry="0.833333" fill="#818181"/>
<ellipse cx="10.0001" cy="9.16659" rx="0.833333" ry="0.833333" fill="#818181"/>
<circle cx="13.3333" cy="9.16659" r="0.833333" fill="#818181"/>
<path d="M16.1048 4.81468L16.5206 4.5369V4.5369L16.1048 4.81468ZM16.1048 13.5185L16.5206 13.7963V13.7963L16.1048 13.5185ZM15.1852 14.4382L15.4629 14.8539H15.4629L15.1852 14.4382ZM11.6666 14.9988L11.6644 14.4988C11.3891 14.5 11.1666 14.7235 11.1666 14.9988H11.6666ZM11.6666 14.9999L12.1138 15.2235C12.1485 15.1541 12.1666 15.0775 12.1666 14.9999H11.6666ZM8.33325 14.9999H7.83325C7.83325 15.0775 7.85132 15.1541 7.88604 15.2235L8.33325 14.9999ZM8.33325 14.9988H8.83325C8.83325 14.7235 8.61072 14.5 8.33543 14.4988L8.33325 14.9988ZM4.81468 14.4382L4.5369 14.8539H4.5369L4.81468 14.4382ZM3.89502 13.5185L4.31075 13.2407H4.31075L3.89502 13.5185ZM3.89502 4.81468L4.31075 5.09247L3.89502 4.81468ZM4.81468 3.89502L5.09247 4.31075L4.81468 3.89502ZM15.1852 3.89502L15.4629 3.47929V3.47929L15.1852 3.89502ZM17.1666 9.16659C17.1666 8.00661 17.1672 7.09899 17.0938 6.37752C17.0196 5.6477 16.8655 5.05312 16.5206 4.5369L15.6891 5.09247C15.9059 5.41699 16.0327 5.82798 16.0989 6.47873C16.166 7.13784 16.1666 7.98579 16.1666 9.16659H17.1666ZM16.5206 13.7963C16.8655 13.2801 17.0196 12.6855 17.0938 11.9556C17.1672 11.2342 17.1666 10.3266 17.1666 9.16659H16.1666C16.1666 10.3474 16.166 11.1953 16.0989 11.8544C16.0327 12.5052 15.9059 12.9162 15.6891 13.2407L16.5206 13.7963ZM15.4629 14.8539C15.8815 14.5742 16.2409 14.2148 16.5206 13.7963L15.6891 13.2407C15.4824 13.5501 15.2167 13.8157 14.9074 14.0224L15.4629 14.8539ZM11.6688 15.4988C12.5654 15.4949 13.2928 15.4778 13.8932 15.3948C14.5016 15.3107 15.012 15.1552 15.4629 14.8539L14.9074 14.0224C14.6238 14.2119 14.274 14.3327 13.7563 14.4043C13.2305 14.4769 12.5658 14.4949 11.6644 14.4988L11.6688 15.4988ZM12.1666 14.9999V14.9988H11.1666V14.9999H12.1666ZM11.3416 16.768L12.1138 15.2235L11.2194 14.7763L10.4471 16.3208L11.3416 16.768ZM8.65828 16.768C9.21106 17.8736 10.7888 17.8736 11.3416 16.768L10.4471 16.3208C10.2629 16.6893 9.73697 16.6893 9.5527 16.3208L8.65828 16.768ZM7.88604 15.2235L8.65828 16.768L9.5527 16.3208L8.78047 14.7763L7.88604 15.2235ZM7.83325 14.9988V14.9999H8.83325V14.9988H7.83325ZM4.5369 14.8539C4.98779 15.1552 5.49819 15.3107 6.10664 15.3948C6.70706 15.4778 7.43441 15.4949 8.33107 15.4988L8.33543 14.4988C7.43401 14.4949 6.7693 14.4769 6.24357 14.4043C5.72588 14.3327 5.37604 14.2119 5.09247 14.0224L4.5369 14.8539ZM3.47928 13.7963C3.75896 14.2148 4.11834 14.5742 4.5369 14.8539L5.09247 14.0224C4.7831 13.8157 4.51747 13.5501 4.31075 13.2407L3.47928 13.7963ZM2.83325 9.16659C2.83325 10.3266 2.83265 11.2342 2.90604 11.9556C2.98028 12.6855 3.13436 13.2801 3.47929 13.7963L4.31075 13.2407C4.09391 12.9162 3.96711 12.5052 3.90091 11.8544C3.83386 11.1953 3.83325 10.3474 3.83325 9.16659H2.83325ZM3.47929 4.5369C3.13436 5.05312 2.98028 5.6477 2.90604 6.37752C2.83265 7.09899 2.83325 8.00661 2.83325 9.16659H3.83325C3.83325 7.98579 3.83386 7.13784 3.90091 6.47873C3.96711 5.82798 4.09391 5.41699 4.31075 5.09247L3.47929 4.5369ZM4.5369 3.47929C4.11834 3.75896 3.75896 4.11834 3.47929 4.5369L4.31075 5.09247C4.51747 4.7831 4.7831 4.51747 5.09247 4.31075L4.5369 3.47929ZM9.16658 2.83325C8.00661 2.83325 7.09899 2.83265 6.37752 2.90604C5.6477 2.98028 5.05312 3.13436 4.5369 3.47929L5.09247 4.31075C5.41699 4.09391 5.82798 3.96711 6.47873 3.90091C7.13784 3.83386 7.98579 3.83325 9.16658 3.83325V2.83325ZM10.8333 2.83325H9.16658V3.83325H10.8333V2.83325ZM15.4629 3.47929C14.9467 3.13436 14.3521 2.98028 13.6223 2.90604C12.9009 2.83265 11.9932 2.83325 10.8333 2.83325V3.83325C12.014 3.83325 12.862 3.83386 13.5211 3.90091C14.1719 3.96711 14.5828 4.09391 14.9074 4.31075L15.4629 3.47929ZM16.5206 4.5369C16.2409 4.11834 15.8815 3.75896 15.4629 3.47929L14.9074 4.31075C15.2167 4.51747 15.4824 4.7831 15.6891 5.09247L16.5206 4.5369Z" fill="#818181"/>
</svg>
