<svg width="24" height="24" viewBox="0 0 24 24" fill="none" xmlns="http://www.w3.org/2000/svg">
<path fill-rule="evenodd" clip-rule="evenodd" d="M11.467 4.53273C11.2233 6.21848 10.9171 8.8466 12.5735 11.7895C14.23 14.7324 16.6019 15.7745 18.147 16.4009C18.2004 16.4226 18.2537 16.444 18.3066 16.4654C18.6263 16.5943 18.9341 16.7184 19.1729 16.8402C19.3146 16.9124 19.4657 17.0001 19.5965 17.1097C19.7252 17.2175 19.883 17.3868 19.9575 17.6347C20.1268 18.1979 19.7511 18.6255 19.5208 18.8403C19.2472 19.0956 18.8335 19.3721 18.2993 19.6885C13.7403 22.3884 7.91075 20.7861 5.27861 16.1097C2.64648 11.4333 4.2085 5.4536 8.76749 2.75367C9.30171 2.4373 9.742 2.20804 10.0943 2.09261C10.3908 1.99548 10.9397 1.87556 11.3305 2.30751C11.5026 2.49764 11.5666 2.72248 11.5933 2.89066C11.6204 3.06173 11.6189 3.23973 11.6091 3.40175C11.5924 3.67482 11.5433 4.01024 11.4923 4.35869C11.4839 4.41642 11.4754 4.47451 11.467 4.53273ZM10.2674 3.48481C10.0662 3.57607 9.79475 3.72064 9.4325 3.93517C5.50965 6.25836 4.16558 11.4037 6.43044 15.4276C8.6953 19.4515 13.7114 20.8302 17.6343 18.507C17.9965 18.2924 18.2543 18.1236 18.432 17.9905C18.271 17.9173 18.0726 17.8372 17.8273 17.7381C17.7732 17.7163 17.7169 17.6935 17.6581 17.6697C16.0451 17.0157 13.312 15.8301 11.4217 12.4717C9.53142 9.11325 9.89691 6.09251 10.1513 4.33262C10.1606 4.26857 10.1695 4.20716 10.1781 4.14822C10.2171 3.88076 10.2487 3.66441 10.2674 3.48481ZM10.622 3.36209C10.6216 3.36259 10.6156 3.36362 10.6051 3.36367C10.6172 3.36162 10.6224 3.36159 10.622 3.36209ZM18.7031 17.751C18.7084 17.7418 18.7123 17.7369 18.7129 17.7368C18.7135 17.7367 18.7109 17.7413 18.7031 17.751Z" fill="white"/>
</svg>
