<svg width="current" height="current" viewBox="0 0 current current" fill="none" xmlns="http://www.w3.org/2000/svg">
    <path d="M1.61755 19.3824L2.04182 18.9582L1.61755 19.3825C1.85884 19.6237 2.15807 19.6252 2.3232 19.6091C2.47147 19.5946 2.64575 19.5509 2.79983 19.5123C2.80963 19.5098 2.81935 19.5074 2.82897 19.505L2.68345 18.9229L2.82897 19.505L6.98309 18.4664C6.99928 18.4624 7.01543 18.4584 7.03153 18.4544C7.25031 18.4 7.46062 18.3478 7.65207 18.2394C7.84352 18.131 7.99653 17.9775 8.15571 17.8179C8.16743 17.8061 8.17918 17.7944 8.19098 17.7826L18.7601 7.21348L18.7869 7.18664C19.0972 6.87636 19.3715 6.60215 19.5628 6.35139C19.7702 6.07957 19.9358 5.76604 19.9358 5.375C19.9358 4.98396 19.7702 4.67043 19.5628 4.39861C19.3715 4.14785 19.0972 3.87364 18.7869 3.56336L18.7601 3.53652L17.4635 2.23995L17.4367 2.21314C17.1264 1.9028 16.8522 1.62853 16.6014 1.4372C16.3296 1.22981 16.016 1.06421 15.625 1.06421C15.234 1.06421 14.9204 1.22981 14.6486 1.4372C14.3979 1.62853 14.1236 1.90278 13.8134 2.21311L13.7865 2.23995L3.21745 12.809C3.20565 12.8208 3.19386 12.8326 3.18211 12.8443C3.02249 13.0035 2.86904 13.1565 2.76064 13.3479C2.65225 13.5394 2.59999 13.7497 2.54562 13.9685C2.54162 13.9846 2.53761 14.0007 2.53356 14.0169L1.49503 18.171C1.49262 18.1807 1.49018 18.1904 1.48772 18.2002C1.44911 18.3543 1.40544 18.5285 1.39093 18.6768C1.37478 18.8419 1.37627 19.1412 1.61755 19.3824Z" stroke="white" stroke-width="1.2" />
</svg>