<svg width="41" height="41" viewBox="0 0 24 24" fill="none" xmlns="http://www.w3.org/2000/svg">
    <circle cx="12" cy="12" r="9.5" fill="#C4C4C4" stroke="white" />
    <path d="M15.2368 11.4868L15.2368 11.4868C15.2377 11.4859 15.2386 11.4849 15.2395 11.484C15.2525 11.4711 15.2654 11.4582 15.2783 11.4454C15.4504 11.2737 15.6113 11.1132 15.7167 10.9332C16.0088 10.434 16.0088 9.81601 15.7167 9.31684C15.6113 9.13679 15.4504 8.97633 15.2783 8.80465C15.2645 8.79092 15.2507 8.77712 15.2368 8.76324L15.2368 8.76324C15.2361 8.76258 15.2355 8.76193 15.2348 8.76128C15.2216 8.74805 15.2084 8.73487 15.1954 8.72175C15.0237 8.54959 14.8632 8.38869 14.6832 8.28331C14.184 7.99118 13.566 7.99118 13.0668 8.28331C12.8868 8.38869 12.7263 8.54959 12.5546 8.72175C12.5409 8.73551 12.5271 8.74935 12.5132 8.76323L12.5132 8.76324L8.21745 13.059L8.21745 13.059C8.20564 13.0708 8.19386 13.0826 8.1821 13.0943C8.02248 13.2535 7.86904 13.4065 7.76064 13.5979C7.65225 13.7894 7.59999 13.9997 7.54562 14.2185C7.54162 14.2346 7.53761 14.2507 7.53356 14.2669L7.24503 15.421C7.24262 15.4307 7.24018 15.4404 7.23772 15.4502C7.19911 15.6043 7.15544 15.7785 7.14093 15.9268C7.12478 16.0919 7.12627 16.3912 7.36755 16.6324C7.60884 16.8737 7.90807 16.8752 8.07319 16.8591C8.22145 16.8446 8.3957 16.8009 8.54977 16.7623C8.55959 16.7598 8.56932 16.7574 8.57896 16.755L8.57897 16.755L9.73309 16.4664C9.74929 16.4624 9.76544 16.4584 9.78155 16.4544C10.0003 16.4 10.2106 16.3478 10.4021 16.2394L10.1064 15.7172L10.4021 16.2394C10.5935 16.131 10.7465 15.9775 10.9057 15.8179C10.9174 15.8061 10.9292 15.7944 10.941 15.7825L15.2368 11.4868Z" stroke="white" stroke-width="1.2" />
    <path d="M12.625 9.5L14.5 11.375" stroke="white" stroke-width="1.2" />
</svg>