<svg width="30" height="30" viewBox="0 0 30 30" fill="none" xmlns="http://www.w3.org/2000/svg">
<path d="M16.25 6.5625C15.7322 6.5625 15.3125 6.98223 15.3125 7.5C15.3125 8.01777 15.7322 8.4375 16.25 8.4375L23.75 8.4375C24.2678 8.4375 24.6875 8.01777 24.6875 7.5C24.6875 6.98223 24.2678 6.5625 23.75 6.5625H16.25Z" fill="black"/>
<path d="M6.25 14.0625C5.73223 14.0625 5.3125 14.4822 5.3125 15C5.3125 15.5178 5.73223 15.9375 6.25 15.9375H23.75C24.2678 15.9375 24.6875 15.5178 24.6875 15C24.6875 14.4822 24.2678 14.0625 23.75 14.0625H6.25Z" fill="black"/>
<path d="M11.25 21.5625C10.7322 21.5625 10.3125 21.9822 10.3125 22.5C10.3125 23.0178 10.7322 23.4375 11.25 23.4375L23.75 23.4375C24.2678 23.4375 24.6875 23.0178 24.6875 22.5C24.6875 21.9822 24.2678 21.5625 23.75 21.5625L11.25 21.5625Z" fill="black"/>
</svg>
