<svg width="24" height="24" viewBox="0 0 24 24" fill="none" xmlns="http://www.w3.org/2000/svg">
<mask id="path-1-outside-1_1671_1936" maskUnits="userSpaceOnUse" x="3" y="5" width="16" height="16" fill="black">
<rect fill="white" x="3" y="5" width="16" height="16"/>
<path d="M13.5858 7.41421L6.39171 14.6083C6.19706 14.8029 6.09974 14.9003 6.03276 15.0186C5.96579 15.1368 5.93241 15.2704 5.86564 15.5374L5.20211 18.1915C5.11186 18.5526 5.06673 18.7331 5.16682 18.8332C5.2669 18.9333 5.44742 18.8881 5.80844 18.7979L5.80845 18.7979L8.46257 18.1344C8.72963 18.0676 8.86316 18.0342 8.98145 17.9672C9.09974 17.9003 9.19706 17.8029 9.39171 17.6083L16.5858 10.4142L16.5858 10.4142C17.2525 9.74755 17.5858 9.41421 17.5858 9C17.5858 8.58579 17.2525 8.25245 16.5858 7.58579L16.4142 7.41421C15.7475 6.74755 15.4142 6.41421 15 6.41421C14.5858 6.41421 14.2525 6.74755 13.5858 7.41421Z"/>
</mask>
<path d="M6.39171 14.6083L7.24024 15.4568L7.24024 15.4568L6.39171 14.6083ZM13.5858 7.41421L12.7373 6.56568L12.7373 6.56568L13.5858 7.41421ZM16.4142 7.41421L15.5657 8.26274L15.5657 8.26274L16.4142 7.41421ZM16.5858 7.58579L17.4343 6.73726L17.4343 6.73726L16.5858 7.58579ZM16.5858 10.4142L17.4343 11.2627L16.5858 10.4142ZM9.39171 17.6083L8.54319 16.7598L8.54319 16.7598L9.39171 17.6083ZM5.86564 15.5374L7.02981 15.8285H7.02981L5.86564 15.5374ZM5.20211 18.1915L4.03794 17.9005H4.03794L5.20211 18.1915ZM5.80845 18.7979L5.51741 17.6337L5.46513 17.6468L5.41423 17.6645L5.80845 18.7979ZM8.46257 18.1344L8.17153 16.9702L8.17153 16.9702L8.46257 18.1344ZM5.16682 18.8332L6.01535 17.9847L6.01534 17.9847L5.16682 18.8332ZM5.80844 18.7979L6.09948 19.9621L6.15177 19.949L6.20267 19.9313L5.80844 18.7979ZM8.98145 17.9672L8.39021 16.923L8.39021 16.923L8.98145 17.9672ZM16.5858 10.4142L17.4343 11.2627L17.4343 11.2627L16.5858 10.4142ZM6.03276 15.0186L4.98852 14.4273H4.98852L6.03276 15.0186ZM7.24024 15.4568L14.4343 8.26274L12.7373 6.56568L5.54319 13.7598L7.24024 15.4568ZM15.5657 8.26274L15.7373 8.43431L17.4343 6.73726L17.2627 6.56568L15.5657 8.26274ZM15.7373 9.56569L8.54319 16.7598L10.2402 18.4568L17.4343 11.2627L15.7373 9.56569ZM4.70147 15.2464L4.03794 17.9005L6.36628 18.4826L7.02981 15.8285L4.70147 15.2464ZM6.09949 19.9621L8.75362 19.2985L8.17153 16.9702L5.51741 17.6337L6.09949 19.9621ZM4.03794 17.9005C4.0026 18.0419 3.93959 18.2807 3.91878 18.4934C3.89653 18.7209 3.88576 19.2492 4.31829 19.6817L6.01534 17.9847C6.16474 18.1341 6.24982 18.3115 6.28683 18.4723C6.31867 18.6106 6.30901 18.7104 6.30738 18.7271C6.30544 18.747 6.30438 18.7421 6.31598 18.6899C6.32715 18.6395 6.34255 18.5775 6.36628 18.4826L4.03794 17.9005ZM5.41423 17.6645L5.41422 17.6645L6.20267 19.9313L6.20268 19.9313L5.41423 17.6645ZM5.51741 17.6337C5.42246 17.6575 5.36049 17.6729 5.31014 17.684C5.25785 17.6956 5.25304 17.6946 5.27295 17.6926C5.28963 17.691 5.38941 17.6813 5.52771 17.7132C5.68848 17.7502 5.86595 17.8353 6.01535 17.9847L4.31828 19.6817C4.75081 20.1142 5.27913 20.1035 5.50661 20.0812C5.71925 20.0604 5.9581 19.9974 6.09948 19.9621L5.51741 17.6337ZM8.54319 16.7598C8.49324 16.8097 8.4555 16.8474 8.42261 16.8796C8.38993 16.9116 8.36943 16.9309 8.35573 16.9432C8.33155 16.9649 8.34894 16.9464 8.39021 16.923L9.57269 19.0115C9.86549 18.8457 10.0906 18.6064 10.2402 18.4568L8.54319 16.7598ZM8.75361 19.2985C8.95887 19.2472 9.27989 19.1773 9.57269 19.0115L8.39021 16.923C8.43148 16.8996 8.45635 16.8943 8.42528 16.9038C8.40766 16.9092 8.38061 16.9169 8.33635 16.9285C8.29181 16.9401 8.24005 16.9531 8.17153 16.9702L8.75361 19.2985ZM15.7373 8.43431C15.9071 8.60413 16.0412 8.73837 16.1536 8.85661C16.2665 8.97529 16.3367 9.05644 16.3818 9.11546C16.467 9.22716 16.3858 9.16076 16.3858 9H18.7858C18.7858 8.42502 18.5379 7.98485 18.2898 7.65967C18.0628 7.36217 17.7437 7.0466 17.4343 6.73726L15.7373 8.43431ZM17.4343 11.2627L17.4343 11.2627L15.7373 9.56568L15.7373 9.56569L17.4343 11.2627ZM17.4343 11.2627C17.7437 10.9534 18.0628 10.6378 18.2898 10.3403C18.5379 10.0151 18.7858 9.57497 18.7858 9H16.3858C16.3858 8.83924 16.467 8.77284 16.3818 8.88454C16.3367 8.94355 16.2665 9.02471 16.1536 9.14339C16.0412 9.26163 15.9071 9.39586 15.7373 9.56568L17.4343 11.2627ZM14.4343 8.26274C14.6041 8.09292 14.7384 7.9588 14.8566 7.84638C14.9753 7.73354 15.0564 7.66327 15.1155 7.61824C15.2272 7.53301 15.1608 7.61421 15 7.61421V5.21421C14.425 5.21421 13.9849 5.46208 13.6597 5.71019C13.3622 5.93717 13.0466 6.25634 12.7373 6.56568L14.4343 8.26274ZM17.2627 6.56569C16.9534 6.25634 16.6378 5.93717 16.3403 5.71019C16.0151 5.46208 15.575 5.21421 15 5.21421V7.61421C14.8392 7.61421 14.7728 7.53301 14.8845 7.61824C14.9436 7.66327 15.0247 7.73354 15.1434 7.84638C15.2616 7.9588 15.3959 8.09292 15.5657 8.26274L17.2627 6.56569ZM5.54319 13.7598C5.39358 13.9094 5.1543 14.1345 4.98852 14.4273L7.077 15.6098C7.05364 15.6511 7.03507 15.6684 7.0568 15.6443C7.06912 15.6306 7.08837 15.6101 7.12037 15.5774C7.15258 15.5445 7.1903 15.5068 7.24024 15.4568L5.54319 13.7598ZM7.02981 15.8285C7.04694 15.76 7.0599 15.7082 7.07154 15.6636C7.0831 15.6194 7.09076 15.5923 7.09618 15.5747C7.10573 15.5437 7.10037 15.5685 7.077 15.6098L4.98852 14.4273C4.82274 14.7201 4.75279 15.0411 4.70147 15.2464L7.02981 15.8285Z" fill="#476CFF" mask="url(#path-1-outside-1_1671_1936)"/>
<path d="M13 8L16 11" stroke="#476CFF" stroke-width="1.2"/>
</svg>
