<svg width="current" height="current" viewBox="0 0 24 24" fill="none" xmlns="http://www.w3.org/2000/svg">
    <path d="M8.9879 17.4948C8.9879 17.4204 8.91532 17.3461 8.80645 17.3461C8.69758 17.3461 8.625 17.4204 8.625 17.4948C8.625 17.5691 8.69758 17.6434 8.80645 17.6063C8.91532 17.6063 8.9879 17.5691 8.9879 17.4948ZM7.8629 17.3089C7.8629 17.3833 7.93548 17.4948 8.04435 17.4948C8.11694 17.5319 8.22581 17.4948 8.2621 17.4204C8.2621 17.3461 8.22581 17.2718 8.11694 17.2346C8.00806 17.1974 7.89919 17.2346 7.8629 17.3089ZM9.49597 17.2718C9.3871 17.2718 9.31452 17.3461 9.31452 17.4576C9.31452 17.5319 9.42339 17.5691 9.53226 17.5319C9.64113 17.4948 9.71371 17.4576 9.67742 17.3833C9.67742 17.3089 9.56855 17.2346 9.49597 17.2718ZM11.8548 3C6.84677 3 3 6.9396 3 12.0685C3 16.1939 5.50403 19.7247 9.13306 20.9884C9.60484 21.0627 9.75 20.7654 9.75 20.5424C9.75 20.2822 9.75 19.0186 9.75 18.2381C9.75 18.2381 7.20968 18.7956 6.66532 17.1231C6.66532 17.1231 6.26613 16.0453 5.68548 15.7851C5.68548 15.7851 4.85081 15.1905 5.72177 15.1905C5.72177 15.1905 6.62903 15.2648 7.1371 16.1568C7.93548 17.6063 9.24194 17.1974 9.78629 16.9373C9.85887 16.3426 10.0766 15.9338 10.3669 15.6736C8.33468 15.4506 6.26613 15.1533 6.26613 11.5854C6.26613 10.5447 6.55645 10.0615 7.1371 9.39256C7.02823 9.1324 6.7379 8.16608 7.24597 6.86527C7.97177 6.64227 9.75 7.86875 9.75 7.86875C10.4758 7.64575 11.2379 7.57142 12 7.57142C12.7984 7.57142 13.5605 7.64575 14.2863 7.86875C14.2863 7.86875 16.0282 6.60511 16.7903 6.86527C17.2984 8.16608 16.9718 9.1324 16.8992 9.39256C17.4798 10.0615 17.8427 10.5447 17.8427 11.5854C17.8427 15.1533 15.7016 15.4506 13.6694 15.6736C13.996 15.9709 14.2863 16.5284 14.2863 17.4204C14.2863 18.6469 14.25 20.2079 14.25 20.5052C14.25 20.7654 14.4315 21.0627 14.9032 20.9512C18.5323 19.7247 21 16.1939 21 12.0685C21 6.9396 16.8992 3 11.8548 3ZM6.52016 15.8223C6.44758 15.8594 6.48387 15.9709 6.52016 16.0453C6.59274 16.0824 6.66532 16.1196 6.7379 16.0824C6.77419 16.0453 6.77419 15.9338 6.70161 15.8594C6.62903 15.8223 6.55645 15.7851 6.52016 15.8223ZM6.12097 15.525C6.08468 15.5993 6.12097 15.6365 6.19355 15.6736C6.26613 15.7108 6.33871 15.7108 6.375 15.6365C6.375 15.5993 6.33871 15.5621 6.26613 15.525C6.19355 15.4878 6.15726 15.4878 6.12097 15.525ZM7.28226 16.8629C7.24597 16.9001 7.24597 17.0116 7.35484 17.0859C7.42742 17.1603 7.53629 17.1974 7.57258 17.1231C7.60887 17.0859 7.60887 16.9744 7.53629 16.9001C7.46371 16.8258 7.35484 16.7886 7.28226 16.8629ZM6.88306 16.3054C6.81048 16.3426 6.81048 16.4541 6.88306 16.5284C6.95565 16.6028 7.02823 16.6399 7.10081 16.6028C7.1371 16.5656 7.1371 16.4541 7.10081 16.3798C7.02823 16.3054 6.95565 16.2683 6.88306 16.3054Z" fill="white" />
</svg>