<svg width="24" height="24" viewBox="0 0 24 24" fill="none" xmlns="http://www.w3.org/2000/svg">
<path fill-rule="evenodd" clip-rule="evenodd" d="M10.5 0.885986C5.11523 0.885986 0.75 5.3278 0.75 10.8071C0.75 16.2863 5.11523 20.7281 10.5 20.7281C15.8848 20.7281 20.25 16.2863 20.25 10.8071C20.25 5.3278 15.8848 0.885986 10.5 0.885986ZM2.25 10.8071C2.25 6.17076 5.94366 2.4123 10.5 2.4123C15.0564 2.4123 18.75 6.17076 18.75 10.8071C18.75 15.4433 15.0564 19.2018 10.5 19.2018C5.94366 19.2018 2.25 15.4433 2.25 10.8071Z" fill="#0F0F0F"/>
<path d="M19.0304 18.4079C18.7375 18.1098 18.2627 18.1098 17.9698 18.4079C17.6769 18.7059 17.6769 19.1891 17.9698 19.4871L21.9697 23.5573C22.2626 23.8553 22.7374 23.8553 23.0303 23.5573C23.3232 23.2593 23.3232 22.776 23.0303 22.478L19.0304 18.4079Z" fill="#0F0F0F"/>
</svg>
