<svg width="16" height="21" viewBox="0 0 16 21" fill="none" xmlns="http://www.w3.org/2000/svg">
<path fill-rule="evenodd" clip-rule="evenodd" d="M3.16129 1.72341C2.84046 1.72341 2.53278 1.86085 2.30592 2.1055C2.07906 2.35015 1.95161 2.68197 1.95161 3.02795V18.2051L7.57813 13.871C7.83049 13.6766 8.16951 13.6766 8.42187 13.871L14.0484 18.2051V3.02795C14.0484 2.68197 13.9209 2.35015 13.6941 2.1055C13.4672 1.86085 13.1595 1.72341 12.8387 1.72341H3.16129ZM1.27947 0.998561C1.77856 0.460332 2.45547 0.157959 3.16129 0.157959H12.8387C13.5445 0.157959 14.2214 0.460333 14.7205 0.998561C15.2196 1.53679 15.5 2.26678 15.5 3.02795V19.7261C15.5 20.0193 15.3481 20.2879 15.1063 20.4221C14.8646 20.5562 14.5736 20.5335 14.3523 20.363L8 15.4698L1.64767 20.363C1.42644 20.5335 1.13544 20.5562 0.893691 20.4221C0.651946 20.2879 0.5 20.0193 0.5 19.7261V3.02795C0.5 2.26678 0.780385 1.53679 1.27947 0.998561Z" fill="#0F0F0F"/>
</svg>
