<svg width="24" height="20" viewBox="0 0 24 20" fill="none" xmlns="http://www.w3.org/2000/svg">
<path fill-rule="evenodd" clip-rule="evenodd" d="M12 0.407959C8.06091 0.407959 4.75361 3.37378 4.32602 7.28962L3.99641 10.3081C3.94068 10.8185 3.91589 11.0425 3.87824 11.2603C3.75484 11.974 3.52519 12.6652 3.19693 13.3109C3.09676 13.5079 2.98262 13.7021 2.72182 14.1444L1.88229 15.5682L1.85258 15.6186C1.48334 16.2447 1.16378 16.7865 0.98138 17.2361C0.791835 17.7032 0.663506 18.2772 0.981038 18.833C1.29857 19.3889 1.85814 19.5698 2.35682 19.6439C2.83669 19.7151 3.46572 19.715 4.19255 19.715H4.19264L4.25114 19.715H19.7489L19.8074 19.715H19.8075C20.5343 19.715 21.1634 19.7151 21.6432 19.6439C22.1419 19.5698 22.7015 19.3889 23.019 18.833C23.3365 18.2772 23.2082 17.7032 23.0187 17.2361C22.8363 16.7865 22.5167 16.2447 22.1475 15.6186L22.1475 15.6186L22.1178 15.5682L21.2782 14.1444C21.0174 13.7021 20.9033 13.5079 20.8031 13.3109C20.4749 12.6652 20.2452 11.974 20.1218 11.2603C20.0842 11.0425 20.0594 10.8185 20.0036 10.3081L19.7699 8.16763C19.3253 8.38495 18.8273 8.50999 18.2992 8.51731L18.5125 10.4709L18.5155 10.4983L18.5155 10.4984C18.5674 10.9741 18.5972 11.2464 18.6437 11.5158C18.7927 12.3772 19.0698 13.2114 19.466 13.9907C19.5899 14.2343 19.7291 14.4704 19.9721 14.8826L19.9722 14.8827L19.9861 14.9063L20.8257 16.3301C21.2332 17.0212 21.4933 17.4663 21.6287 17.8C21.6947 17.9627 21.7096 18.0479 21.7114 18.086C21.6776 18.1039 21.5967 18.1343 21.423 18.1601C21.0668 18.213 20.5513 18.215 19.7489 18.215H4.25114C3.44879 18.215 2.93328 18.213 2.57703 18.1601C2.40336 18.1343 2.32246 18.1039 2.28865 18.086C2.29046 18.0479 2.30532 17.9627 2.37133 17.8C2.50673 17.4663 2.76685 17.0212 3.17439 16.3301L4.01392 14.9063L4.02788 14.8826C4.27096 14.4704 4.41016 14.2343 4.53405 13.9907C4.93022 13.2114 5.20739 12.3772 5.35631 11.5158C5.40288 11.2464 5.43262 10.974 5.48457 10.4983L5.48755 10.4709L5.81716 7.45244C6.16166 4.29749 8.82632 1.90796 12 1.90796C13.2485 1.90796 14.4182 2.27774 15.3989 2.91843C15.6972 2.49441 16.0857 2.13896 16.5372 1.88186C15.2585 0.952058 13.6872 0.407959 12 0.407959ZM17.3776 2.58911C16.8929 2.77276 16.4794 3.10502 16.1904 3.53144C17.2756 4.52073 18.0126 5.8931 18.1829 7.45244L18.1899 7.51693C18.2099 7.51741 18.2299 7.51765 18.25 7.51765C18.7681 7.51765 19.2495 7.35725 19.6486 7.0826C19.4082 5.31789 18.5808 3.75691 17.3776 2.58911ZM21.7091 18.1119C21.7085 18.1114 21.7087 18.1068 21.7115 18.0995C21.7111 18.1088 21.7097 18.1124 21.7091 18.1119ZM21.723 18.0793C21.7279 18.0732 21.7318 18.0706 21.7325 18.0709C21.7332 18.0712 21.7308 18.0743 21.723 18.0793ZM2.26754 18.0709C2.26827 18.0706 2.27215 18.0732 2.27702 18.0793C2.26926 18.0743 2.26682 18.0712 2.26754 18.0709ZM2.28855 18.0995C2.29136 18.1068 2.29156 18.1114 2.29096 18.1119C2.29036 18.1124 2.28895 18.1087 2.28855 18.0995Z" fill="#0F0F0F"/>
</svg>
