<svg width="current" height="current" viewBox="0 0 24 24" fill="none" xmlns="http://www.w3.org/2000/svg">
<path d="M19.612 6.32611C19.1722 5.90569 18.65 5.57219 18.0752 5.34465C17.5005 5.11711 16.8844 5 16.2623 5C15.6401 5 15.0241 5.11711 14.4493 5.34465C13.8746 5.57219 13.3524 5.90569 12.9126 6.32611L11.9998 7.19821L11.087 6.32611C10.1986 5.4773 8.99364 5.00044 7.73725 5.00044C6.48085 5.00044 5.27591 5.4773 4.38751 6.32611C3.4991 7.17492 3 8.32616 3 9.52656C3 10.727 3.4991 11.8782 4.38751 12.727L5.30029 13.5991L11.9998 20L18.6992 13.5991L19.612 12.727C20.0521 12.3068 20.4011 11.8079 20.6393 11.2587C20.8774 10.7096 21 10.121 21 9.52656C21 8.93214 20.8774 8.34355 20.6393 7.7944C20.4011 7.24526 20.0521 6.74633 19.612 6.32611V6.32611Z" stroke="#FEFEFE" stroke-linecap="round" stroke-linejoin="round"/>
</svg>
