<svg width="20" height="20" viewBox="0 0 20 20" fill="none" xmlns="http://www.w3.org/2000/svg">
<path d="M16.3434 5.27159C15.9768 4.92125 15.5417 4.64333 15.0627 4.45371C14.5837 4.2641 14.0704 4.1665 13.5519 4.1665C13.0335 4.1665 12.5201 4.2641 12.0411 4.45371C11.5621 4.64333 11.127 4.92125 10.7605 5.27159L9.99981 5.99835L9.23916 5.27159C8.49882 4.56425 7.4947 4.16687 6.44771 4.16687C5.40071 4.16687 4.39659 4.56425 3.65626 5.27159C2.91592 5.97894 2.5 6.9383 2.5 7.93863C2.5 8.93897 2.91592 9.89833 3.65626 10.6057L4.41691 11.3324L9.99981 16.6665L15.5827 11.3324L16.3434 10.6057C16.71 10.2555 17.0009 9.83972 17.1994 9.3821C17.3979 8.92448 17.5 8.43398 17.5 7.93863C17.5 7.44329 17.3979 6.95279 17.1994 6.49517C17.0009 6.03755 16.71 5.62178 16.3434 5.27159Z" fill="#FF4B4B"/>
</svg>
