<svg width="24" height="24" viewBox="0 0 24 24" fill="none" xmlns="http://www.w3.org/2000/svg">
<path d="M9 15L13 15" stroke="white" stroke-linecap="round"/>
<path d="M9 11L15 11" stroke="white" stroke-linecap="round"/>
<path d="M9 4C9 2.89543 9.89543 2 11 2H13C14.1046 2 15 2.89543 15 4C15 5.10457 14.1046 6 13 6H11C9.89543 6 9 5.10457 9 4Z" stroke="white"/>
<path d="M15.5 4C16.9045 4 17.6067 4 18.1111 4.33706C18.3295 4.48298 18.517 4.67048 18.6629 4.88886C19 5.39331 19 6.09554 19 7.5V17C19 18.8856 19 19.8284 18.4142 20.4142C17.8284 21 16.8856 21 15 21H9C7.11438 21 6.17157 21 5.58579 20.4142C5 19.8284 5 18.8856 5 17V7.5C5 6.09554 5 5.39331 5.33706 4.88886C5.48298 4.67048 5.67048 4.48298 5.88886 4.33706C6.39331 4 7.09554 4 8.5 4" stroke="white"/>
</svg>
