<svg width="24" height="24" viewBox="0 0 24 24" fill="none" xmlns="http://www.w3.org/2000/svg">
<path fill-rule="evenodd" clip-rule="evenodd" d="M9.68012 9.37744C10.0086 7.43035 10.5668 5.47478 10.8593 4.51595C11.231 4.45982 11.6119 4.43066 12 4.43066C12.3882 4.43066 12.7691 4.45982 13.1408 4.51595C13.4332 5.47478 13.9915 7.43035 14.3199 9.37744C13.4983 9.50568 12.7013 9.58612 12 9.58612C11.2988 9.58612 10.5017 9.50568 9.68012 9.37744ZM15.7951 9.10518C15.5359 7.57684 15.1461 6.05902 14.841 4.98171C16.4727 5.64298 17.8225 6.85747 18.6564 8.39283C17.8835 8.61256 16.8702 8.87938 15.7951 9.10518ZM16.0003 10.5946C17.2408 10.3379 18.4027 10.0274 19.2406 9.78584C19.4542 10.4855 19.5693 11.2288 19.5693 12C19.5693 12.3881 19.5402 12.769 19.4841 13.1407C18.7415 13.3673 17.3975 13.7543 15.9213 14.07C16.0174 13.359 16.0777 12.6536 16.0777 12C16.0777 11.5498 16.0492 11.0762 16.0003 10.5946ZM15.6557 15.6557C16.9157 15.4085 18.1198 15.0954 19.0183 14.841C18.2503 16.7362 16.7362 18.2503 14.841 19.0183C15.0954 18.1197 15.4086 16.9157 15.6557 15.6557ZM14.0701 15.9213C13.7543 17.3975 13.3673 18.7414 13.1408 19.484C12.7691 19.5402 12.3882 19.5693 12 19.5693C11.6119 19.5693 11.231 19.5402 10.8593 19.484C10.6328 18.7414 10.2457 17.3975 9.92998 15.9213C10.641 16.0174 11.3464 16.0777 12 16.0777C12.6537 16.0777 13.3591 16.0174 14.0701 15.9213ZM8.34431 15.6557C8.59146 16.9157 8.90459 18.1197 9.15905 19.0183C7.26385 18.2503 5.74975 16.7362 4.98172 14.841C5.88027 15.0954 7.08432 15.4085 8.34431 15.6557ZM8.07872 14.07C6.60254 13.7543 5.25858 13.3673 4.51598 13.1407C4.45985 12.769 4.43069 12.3881 4.43069 12C4.43069 11.2288 4.5458 10.4855 4.75946 9.78585C5.59733 10.0274 6.75922 10.3379 7.99972 10.5946C7.95087 11.0762 7.92229 11.5498 7.92229 12C7.92229 12.6536 7.9826 13.359 8.07872 14.07ZM8.20491 9.10518C7.12979 8.87938 6.11652 8.61256 5.34365 8.39283C6.17758 6.85747 7.52733 5.64298 9.15903 4.98171C8.85394 6.05902 8.46418 7.57684 8.20491 9.10518ZM9.42229 12C9.42229 11.6443 9.44302 11.2628 9.48049 10.8644C10.3422 10.9978 11.2092 11.0861 12 11.0861C12.7908 11.0861 13.6579 10.9978 14.5195 10.8644C14.557 11.2628 14.5777 11.6443 14.5777 12C14.5777 12.7128 14.4946 13.5251 14.3624 14.3624C13.5252 14.4946 12.7128 14.5777 12 14.5777C11.2872 14.5777 10.4749 14.4946 9.63764 14.3624C9.50542 13.5251 9.42229 12.7128 9.42229 12ZM12 2.93066C11.3576 2.93066 10.7299 2.99758 10.124 3.12509C7.15501 3.74982 4.72336 5.82438 3.60085 8.57269C3.16857 9.63107 2.93069 10.7887 2.93069 12C2.93069 12.6424 2.99761 13.2701 3.12512 13.876C3.86243 17.38 6.61997 20.1376 10.124 20.8749C10.7299 21.0024 11.3576 21.0693 12 21.0693C12.6425 21.0693 13.2701 21.0024 13.8761 20.8749C17.3801 20.1376 20.1376 17.38 20.8749 13.876C21.0024 13.2701 21.0693 12.6424 21.0693 12C21.0693 10.7896 20.8318 9.63288 20.4002 8.57517C19.2781 5.82563 16.8459 3.75001 13.8761 3.12509C13.2701 2.99758 12.6425 2.93066 12 2.93066Z" fill="white"/>
</svg>
