<svg width="24" height="24" viewBox="0 0 24 24" fill="none" xmlns="http://www.w3.org/2000/svg">
<path d="M12.6383 2.6383C12.6383 2.28578 12.3525 2 12 2C11.6475 2 11.3617 2.28578 11.3617 2.6383V4.34043C11.3617 4.69295 11.6475 4.97872 12 4.97872C12.3525 4.97872 12.6383 4.69295 12.6383 4.34043V2.6383Z" fill="white"/>
<path d="M5.83162 4.92893C5.58235 4.67966 5.1782 4.67966 4.92893 4.92893C4.67966 5.1782 4.67966 5.58235 4.92893 5.83162L6.13252 7.03521C6.38179 7.28448 6.78594 7.28448 7.03521 7.03521C7.28448 6.78594 7.28448 6.38179 7.03521 6.13252L5.83162 4.92893Z" fill="white"/>
<path d="M19.0711 5.83162C19.3203 5.58235 19.3203 5.1782 19.0711 4.92893C18.8218 4.67966 18.4177 4.67966 18.1684 4.92893L16.9648 6.13252C16.7155 6.38179 16.7155 6.78594 16.9648 7.03521C17.2141 7.28448 17.6182 7.28448 17.8675 7.03521L19.0711 5.83162Z" fill="white"/>
<path fill-rule="evenodd" clip-rule="evenodd" d="M12 6.25532C8.8273 6.25532 6.25532 8.8273 6.25532 12C6.25532 15.1727 8.8273 17.7447 12 17.7447C15.1727 17.7447 17.7447 15.1727 17.7447 12C17.7447 8.8273 15.1727 6.25532 12 6.25532ZM7.53192 12C7.53192 9.53234 9.53234 7.53192 12 7.53192C14.4677 7.53192 16.4681 9.53234 16.4681 12C16.4681 14.4677 14.4677 16.4681 12 16.4681C9.53234 16.4681 7.53192 14.4677 7.53192 12Z" fill="white"/>
<path d="M2.6383 11.3617C2.28578 11.3617 2 11.6475 2 12C2 12.3525 2.28578 12.6383 2.6383 12.6383H4.34043C4.69295 12.6383 4.97872 12.3525 4.97872 12C4.97872 11.6475 4.69295 11.3617 4.34043 11.3617H2.6383Z" fill="white"/>
<path d="M19.6596 11.3617C19.3071 11.3617 19.0213 11.6475 19.0213 12C19.0213 12.3525 19.3071 12.6383 19.6596 12.6383H21.3617C21.7142 12.6383 22 12.3525 22 12C22 11.6475 21.7142 11.3617 21.3617 11.3617H19.6596Z" fill="white"/>
<path d="M7.03521 17.8675C7.28448 17.6182 7.28448 17.2141 7.03521 16.9648C6.78594 16.7155 6.38179 16.7155 6.13252 16.9648L4.92893 18.1684C4.67966 18.4176 4.67966 18.8218 4.92893 19.0711C5.1782 19.3203 5.58235 19.3203 5.83162 19.0711L7.03521 17.8675Z" fill="white"/>
<path d="M17.8675 16.9648C17.6182 16.7155 17.2141 16.7155 16.9648 16.9648C16.7155 17.2141 16.7155 17.6182 16.9648 17.8675L18.1684 19.0711C18.4177 19.3203 18.8218 19.3203 19.0711 19.0711C19.3203 18.8218 19.3203 18.4176 19.0711 18.1684L17.8675 16.9648Z" fill="white"/>
<path d="M12.6383 19.6596C12.6383 19.3071 12.3525 19.0213 12 19.0213C11.6475 19.0213 11.3617 19.3071 11.3617 19.6596V21.3617C11.3617 21.7142 11.6475 22 12 22C12.3525 22 12.6383 21.7142 12.6383 21.3617V19.6596Z" fill="white"/>
</svg>
