<svg width="33" height="26" viewBox="0 0 33 26" fill="none" xmlns="http://www.w3.org/2000/svg">
<path d="M14.2942 0.394353C16.744 1.32303 18.5983 3.83778 18.8622 6.36568C19.8354 5.96155 21.0243 5.94771 22.2642 6.41758C25.1127 7.4978 27.1582 10.7212 26.8315 13.6172C26.7798 14.0767 26.6709 14.4995 26.5138 14.8829C26.8371 14.941 27.1673 15.0317 27.501 15.1583C30.3501 16.2385 32.395 19.4612 32.0683 22.358C31.7415 25.254 29.1675 26.7259 26.3184 25.6457C24.876 25.099 24.2344 24.8471 23.2982 24.4928C22.8304 24.3156 22.2894 24.1122 21.5382 23.8333C20.8728 23.5752 20.2997 23.3558 19.7432 23.1448C18.6297 22.7226 17.5825 22.3337 16.0012 21.7345C14.5868 21.1982 14.0638 21.0494 13.0069 20.6487C12.4784 20.448 11.8165 20.1851 10.8426 19.7788C10.134 19.5117 9.56083 19.2944 9.03233 19.0938C7.97534 18.6931 7.09848 18.3589 5.68404 17.8225C2.1647 16.4877 -0.361182 12.5059 0.0423446 8.92818C0.445871 5.3512 3.62591 3.5326 7.14455 4.86679C7.67584 5.06817 8.18409 5.33113 8.66301 5.64253C8.5171 4.99135 8.47102 4.32841 8.54433 3.68208C8.87036 0.786029 11.4451 -0.68587 14.2942 0.394353Z" fill="#D9D9D9"/>
</svg>
