<svg width="25" height="25" viewBox="0 0 25 25" fill="none" xmlns="http://www.w3.org/2000/svg">
<path d="M15.3025 4.03449C15.9555 3.59912 16.2821 3.38143 16.6378 3.41666C16.9936 3.45189 17.2711 3.72939 17.8261 4.28438L20.7157 7.17396C21.2707 7.72895 21.5482 8.00644 21.5834 8.36221C21.6186 8.71798 21.4009 9.04451 20.9656 9.69757L19.2103 12.3304C18.5886 13.263 18.2777 13.7294 18.0362 14.2304C17.9054 14.5018 17.79 14.7803 17.6906 15.0647C17.5071 15.5898 17.3972 16.1393 17.1774 17.2384L16.9784 18.2331C16.9667 18.2916 16.9609 18.3208 16.9556 18.3421C16.7927 19.0044 16.0292 19.3128 15.452 18.9495C15.4334 18.9379 15.4089 18.9209 15.3599 18.887C15.1288 18.727 15.0133 18.647 14.8992 18.5667C11.612 16.2519 8.74814 13.3881 6.43336 10.1008C6.35304 9.98674 6.27305 9.8712 6.11307 9.64012C6.07915 9.59112 6.06219 9.56662 6.0505 9.54805C5.68726 8.97083 5.99569 8.20735 6.65794 8.0444C6.67924 8.03916 6.70846 8.03332 6.7669 8.02163L7.76164 7.82268C8.86074 7.60286 9.41028 7.49295 9.93538 7.30943C10.2197 7.21004 10.4983 7.09467 10.7696 6.96387C11.2707 6.72235 11.737 6.41148 12.6696 5.78974L15.3025 4.03449Z" fill="white" stroke="#DADADA" stroke-width="1.2"/>
<path d="M5.20837 19.7917L9.89587 15.1042" stroke="#DADADA" stroke-width="1.4" stroke-linecap="round"/>
</svg>
