<svg width="30" height="30" viewBox="0 0 30 30" fill="none" xmlns="http://www.w3.org/2000/svg">
    <path fill-rule="evenodd" clip-rule="evenodd" d="M13.5 3.97266C8.11523 3.97266 3.75 8.24299 3.75 13.5107C3.75 18.7784 8.11523 23.0488 13.5 23.0488C18.8848 23.0488 23.25 18.7784 23.25 13.5107C23.25 8.24299 18.8848 3.97266 13.5 3.97266ZM5.25 13.5107C5.25 9.05341 8.94366 5.44005 13.5 5.44005C18.0564 5.44005 21.75 9.05341 21.75 13.5107C21.75 17.968 18.0564 21.5814 13.5 21.5814C8.94366 21.5814 5.25 17.968 5.25 13.5107Z" fill="#18171C" />
    <path d="M22.0304 20.8181C21.7375 20.5316 21.2627 20.5316 20.9698 20.8181C20.6769 21.1046 20.6769 21.5692 20.9698 21.8557L24.9697 25.7687C25.2626 26.0552 25.7374 26.0552 26.0303 25.7687C26.3232 25.4822 26.3232 25.0176 26.0303 24.7311L22.0304 20.8181Z" fill="#18171C" />
</svg>