<svg width="current" height="current" viewBox="0 0 24 24" fill="none" xmlns="http://www.w3.org/2000/svg">
<path fill-rule="evenodd" clip-rule="evenodd" d="M10.8 3C6.49219 3 3 6.49219 3 10.8C3 15.1078 6.49219 18.6 10.8 18.6C15.1078 18.6 18.6 15.1078 18.6 10.8C18.6 6.49219 15.1078 3 10.8 3ZM4.2 10.8C4.2 7.15493 7.15493 4.2 10.8 4.2C14.4451 4.2 17.4 7.15493 17.4 10.8C17.4 14.4451 14.4451 17.4 10.8 17.4C7.15493 17.4 4.2 14.4451 4.2 10.8Z" fill="#FEFEFE"/>
<path d="M17.6243 16.7758C17.39 16.5415 17.0101 16.5415 16.7758 16.7758C16.5415 17.0101 16.5415 17.39 16.7758 17.6244L19.9757 20.8243C20.21 21.0586 20.5899 21.0586 20.8243 20.8243C21.0586 20.59 21.0586 20.2101 20.8243 19.9758L17.6243 16.7758Z" fill="#FEFEFE"/>
</svg>
