<svg width="30" height="30" viewBox="0 0 30 30" fill="none" xmlns="http://www.w3.org/2000/svg">
<path fill-rule="evenodd" clip-rule="evenodd" d="M18.8895 7.67445C18.8895 6.35475 19.9593 5.28491 21.279 5.28491C22.5987 5.28491 23.6685 6.35475 23.6685 7.67445C23.6685 8.99416 22.5987 10.064 21.279 10.064C20.4168 10.064 19.6613 9.6074 19.2411 8.92284C19.2334 8.9073 19.2251 8.89191 19.2163 8.87671C19.2073 8.86138 19.1979 8.84648 19.1881 8.83202C18.9978 8.48909 18.8895 8.09442 18.8895 7.67445ZM17.6033 8.94962C17.4647 8.55015 17.3895 8.12109 17.3895 7.67445C17.3895 5.52632 19.1309 3.78491 21.279 3.78491C23.4271 3.78491 25.1685 5.52632 25.1685 7.67445C25.1685 9.82258 23.4271 11.564 21.279 11.564C20.1162 11.564 19.0725 11.0537 18.3598 10.2449L12.3965 13.7249C12.5351 14.1244 12.6104 14.5534 12.6104 15C12.6104 15.4465 12.5351 15.8754 12.3967 16.2748L18.363 19.7515C19.0757 18.9448 20.1179 18.436 21.279 18.436C23.4271 18.436 25.1685 20.1775 25.1685 22.3256C25.1685 24.4737 23.4271 26.2151 21.279 26.2151C19.1309 26.2151 17.3895 24.4737 17.3895 22.3256C17.3895 21.8772 17.4653 21.4466 17.6049 21.0459L11.6403 17.5702C10.9275 18.3792 9.8838 18.8896 8.72084 18.8896C6.57271 18.8896 4.8313 17.1482 4.8313 15C4.8313 12.8519 6.57271 11.1105 8.72084 11.1105C9.88367 11.1105 10.9273 11.6208 11.6401 12.4296L17.6033 8.94962ZM10.7835 13.7979C10.7744 13.7823 10.766 13.7666 10.7581 13.7506C10.3378 13.0666 9.58257 12.6105 8.72084 12.6105C7.40113 12.6105 6.3313 13.6803 6.3313 15C6.3313 16.3197 7.40113 17.3896 8.72084 17.3896C9.58273 17.3896 10.338 16.9332 10.7584 16.249C10.7661 16.2334 10.7744 16.218 10.7833 16.2027C10.7924 16.187 10.802 16.1718 10.8121 16.157C11.0022 15.8142 11.1104 15.4198 11.1104 15C11.1104 14.5805 11.0023 14.1862 10.8124 13.8436C10.8023 13.8288 10.7927 13.8136 10.7835 13.7979ZM19.1604 21.2193C18.9873 21.5501 18.8895 21.9264 18.8895 22.3256C18.8895 23.6453 19.9593 24.7151 21.279 24.7151C22.5987 24.7151 23.6685 23.6453 23.6685 22.3256C23.6685 21.0059 22.5987 19.936 21.279 19.936C20.4405 19.936 19.7029 20.3679 19.2765 21.0213C19.2628 21.0559 19.2463 21.0899 19.227 21.123C19.207 21.1573 19.1847 21.1895 19.1604 21.2193Z" fill="#353535"/>
</svg>
