<svg width="current" height="current" viewBox="0 0 16 16" fill="none" xmlns="http://www.w3.org/2000/svg">
    <circle cx="8" cy="8" r="8" fill="#D5D5D5" />
    <ellipse cx="7.99994" cy="5.60004" rx="2.4" ry="2.4" fill="white" />
    <mask id="mask0_222_2375" style="mask-type:alpha" maskUnits="userSpaceOnUse" x="1" y="1" width="14" height="14">
        <path d="M14.3999 7.99991C14.3999 11.5345 11.5346 14.3999 7.99994 14.3999C4.46532 14.3999 1.59995 11.5345 1.59995 7.99991C1.59995 4.46529 4.46532 1.59991 7.99994 1.59991C11.5346 1.59991 14.3999 4.46529 14.3999 7.99991Z" fill="#25F1BA" />
    </mask>
    <g mask="url(#mask0_222_2375)">
        <path d="M13.6001 14.4C13.6001 17.4927 11.0929 20 8.00009 20C4.90729 20 2.40009 17.4927 2.40009 14.4C2.40009 11.3072 4.90729 8.79996 8.00009 8.79996C11.0929 8.79996 13.6001 11.3072 13.6001 14.4Z" fill="white" />
    </g>
</svg>