<svg width="30" height="30" viewBox="0 0 30 30" fill="none" xmlns="http://www.w3.org/2000/svg">
<mask id="path-1-outside-1_1344_1797" maskUnits="userSpaceOnUse" x="4.25" y="6.5" width="20" height="19" fill="black">
<rect fill="white" x="4.25" y="6.5" width="20" height="19"/>
<path d="M17.3358 8.91421L7.89171 18.3583C7.69706 18.5529 7.59974 18.6503 7.53276 18.7686C7.46579 18.8868 7.43241 19.0204 7.36564 19.2874L6.45211 22.9415C6.36186 23.3026 6.31673 23.4831 6.41682 23.5832C6.5169 23.6833 6.69742 23.6381 7.05845 23.5479L10.7126 22.6344C10.9796 22.5676 11.1132 22.5342 11.2314 22.4672C11.3497 22.4003 11.4471 22.3029 11.6417 22.1083L21.0858 12.6642L21.0858 12.6642C21.7525 11.9975 22.0858 11.6642 22.0858 11.25C22.0858 10.8358 21.7525 10.5025 21.0858 9.83579L20.1642 8.91421C19.4975 8.24755 19.1642 7.91421 18.75 7.91421C18.3358 7.91421 18.0025 8.24755 17.3358 8.91421Z"/>
</mask>
<path d="M7.89171 18.3583L8.74024 19.2068L8.74024 19.2068L7.89171 18.3583ZM17.3358 8.91421L16.4873 8.06568V8.06568L17.3358 8.91421ZM20.1642 8.91421L19.3157 9.76274L19.3157 9.76274L20.1642 8.91421ZM21.0858 9.83579L20.2373 10.6843L21.0858 9.83579ZM21.0858 12.6642L21.9343 13.5127L21.9813 13.4657L22.0228 13.4138L21.0858 12.6642ZM11.6417 22.1083L12.4902 22.9568L12.4902 22.9568L11.6417 22.1083ZM7.36564 19.2874L8.52981 19.5785H8.52981L7.36564 19.2874ZM6.45211 22.9415L5.28794 22.6505L6.45211 22.9415ZM7.05845 23.5479L7.34949 24.7121H7.3495L7.05845 23.5479ZM10.7126 22.6344L10.4215 21.4702L10.4215 21.4702L10.7126 22.6344ZM6.41682 23.5832L5.56828 24.4317L5.56829 24.4317L6.41682 23.5832ZM11.2314 22.4672L10.6402 21.423L10.6402 21.423L11.2314 22.4672ZM21.0858 12.6642L20.2373 11.8157L20.1903 11.8627L20.1488 11.9146L21.0858 12.6642ZM7.53276 18.7686L6.48852 18.1773L6.48852 18.1773L7.53276 18.7686ZM8.74024 19.2068L18.1843 9.76274L16.4873 8.06568L7.04319 17.5098L8.74024 19.2068ZM19.3157 9.76274L20.2373 10.6843L21.9343 8.98726L21.0127 8.06569L19.3157 9.76274ZM20.2373 11.8157L10.7932 21.2598L12.4902 22.9568L21.9343 13.5127L20.2373 11.8157ZM6.20147 18.9964L5.28794 22.6505L7.61628 23.2326L8.52981 19.5785L6.20147 18.9964ZM7.3495 24.7121L11.0036 23.7985L10.4215 21.4702L6.76741 22.3837L7.3495 24.7121ZM5.28794 22.6505C5.2526 22.7919 5.18959 23.0307 5.16878 23.2434C5.14653 23.4709 5.13576 23.9992 5.56828 24.4317L7.26535 22.7347C7.41474 22.8841 7.49983 23.0615 7.53683 23.2223C7.56867 23.3606 7.55901 23.4604 7.55738 23.4771C7.55544 23.497 7.55438 23.4921 7.56598 23.4399C7.57715 23.3895 7.59255 23.3275 7.61628 23.2326L5.28794 22.6505ZM6.76741 22.3837C6.67246 22.4075 6.61049 22.4229 6.56015 22.434C6.50785 22.4456 6.50304 22.4446 6.52295 22.4426C6.53963 22.441 6.6394 22.4313 6.77771 22.4632C6.93848 22.5002 7.11594 22.5853 7.26534 22.7347L5.56829 24.4317C6.00082 24.8642 6.52913 24.8535 6.75661 24.8312C6.96926 24.8104 7.20811 24.7474 7.34949 24.7121L6.76741 22.3837ZM10.7932 21.2598C10.7432 21.3097 10.7055 21.3474 10.6726 21.3796C10.6399 21.4116 10.6194 21.4309 10.6057 21.4432C10.5816 21.4649 10.5989 21.4464 10.6402 21.423L11.8227 23.5115C12.1155 23.3457 12.3406 23.1064 12.4902 22.9568L10.7932 21.2598ZM11.0036 23.7985C11.2089 23.7472 11.5299 23.6773 11.8227 23.5115L10.6402 21.423C10.6815 21.3996 10.7063 21.3943 10.6753 21.4038C10.6577 21.4092 10.6306 21.4169 10.5864 21.4285C10.5418 21.4401 10.4901 21.4531 10.4215 21.4702L11.0036 23.7985ZM20.2373 10.6843C20.4071 10.8541 20.5412 10.9884 20.6536 11.1066C20.7665 11.2253 20.8367 11.3064 20.8818 11.3655C20.967 11.4772 20.8858 11.4108 20.8858 11.25H23.2858C23.2858 10.675 23.0379 10.2349 22.7898 9.90967C22.5628 9.61217 22.2437 9.2966 21.9343 8.98726L20.2373 10.6843ZM22.0228 13.4138L22.0228 13.4138L20.1488 11.9146L20.1487 11.9146L22.0228 13.4138ZM21.9343 13.5127C22.2437 13.2034 22.5628 12.8878 22.7898 12.5903C23.0379 12.2651 23.2858 11.825 23.2858 11.25H20.8858C20.8858 11.0892 20.967 11.0228 20.8818 11.1345C20.8367 11.1936 20.7665 11.2747 20.6536 11.3934C20.5412 11.5116 20.4071 11.6459 20.2373 11.8157L21.9343 13.5127ZM18.1843 9.76274C18.3541 9.59292 18.4884 9.4588 18.6066 9.34638C18.7253 9.23354 18.8064 9.16327 18.8655 9.11824C18.9772 9.03301 18.9108 9.11421 18.75 9.11421V6.71421C18.175 6.71421 17.7349 6.96208 17.4097 7.21019C17.1122 7.43717 16.7966 7.75634 16.4873 8.06568L18.1843 9.76274ZM21.0127 8.06569C20.7034 7.75634 20.3878 7.43717 20.0903 7.21019C19.7651 6.96208 19.325 6.71421 18.75 6.71421V9.11421C18.5892 9.11421 18.5228 9.03301 18.6345 9.11824C18.6936 9.16327 18.7747 9.23354 18.8934 9.34638C19.0116 9.4588 19.1459 9.59292 19.3157 9.76274L21.0127 8.06569ZM7.04319 17.5098C6.89358 17.6594 6.6543 17.8845 6.48852 18.1773L8.577 19.3598C8.55364 19.4011 8.53507 19.4184 8.5568 19.3943C8.56912 19.3806 8.58837 19.3601 8.62037 19.3274C8.65258 19.2945 8.6903 19.2568 8.74024 19.2068L7.04319 17.5098ZM8.52981 19.5785C8.54694 19.51 8.5599 19.4582 8.57154 19.4136C8.5831 19.3694 8.59076 19.3423 8.59618 19.3247C8.60573 19.2937 8.60037 19.3185 8.577 19.3598L6.48852 18.1773C6.32274 18.4701 6.25279 18.7911 6.20147 18.9964L8.52981 19.5785Z" fill="#FEFEFE" mask="url(#path-1-outside-1_1344_1797)"/>
<path d="M16.25 10L20 13.75" stroke="#FEFEFE" stroke-width="1.2"/>
</svg>
