<svg width="24" height="24" viewBox="0 0 24 24" fill="none" xmlns="http://www.w3.org/2000/svg">
<path d="M13.9225 4.22529H13.4225V4.25759L13.4267 4.28962L13.9225 4.22529ZM13.9225 4.22528H14.4225V4.20034L14.42 4.17553L13.9225 4.22528ZM13.9225 4.22532L14.4201 4.17557L14.4193 4.16827L14.4184 4.16099L13.9225 4.22532ZM14.1015 5.26424L14.543 5.02953L14.543 5.02953L14.1015 5.26424ZM15.2769 5.75111L15.1307 5.27297L15.2769 5.75111ZM16.1381 5.14302L16.4547 5.53V5.53L16.1381 5.14302ZM16.6158 4.79737L16.8199 5.25382L16.6158 4.79737ZM17.5209 4.84251L17.2724 5.2764L17.2724 5.2764L17.5209 4.84251ZM17.9619 5.23397L18.3356 4.90179L18.3258 4.89081L18.3154 4.88042L17.9619 5.23397ZM17.9619 5.23398L17.5882 5.56616L17.5979 5.57714L17.6083 5.58753L17.9619 5.23398ZM18.766 6.0381L18.4124 6.39165H18.4124L18.766 6.0381ZM19.1575 6.47906L19.5914 6.23058L19.5913 6.23058L19.1575 6.47906ZM19.2026 7.38416L19.6591 7.58824V7.58824L19.2026 7.38416ZM18.8569 7.86189L18.47 7.54527L18.8569 7.86189ZM18.2488 8.72311L18.727 8.86932V8.86932L18.2488 8.72311ZM18.7357 9.89849L18.501 10.34L18.501 10.34L18.7357 9.89849ZM19.7747 10.0775L19.8244 9.57995L19.7747 10.0775ZM20.3569 10.1709L20.5354 9.7038L20.5354 9.7038L20.3569 10.1709ZM20.965 10.8428L20.4825 10.9739L20.4825 10.9739L20.965 10.8428ZM20.965 13.1571L21.4475 13.2882L21.4475 13.2882L20.965 13.1571ZM20.3569 13.8292L20.1784 13.3621L20.3569 13.8292ZM19.7748 13.9225L19.8245 14.42L19.7748 13.9225ZM18.7362 14.1014L18.5016 13.6599L18.5016 13.6599L18.7362 14.1014ZM18.2492 15.277L17.7711 15.4233L18.2492 15.277ZM18.8571 16.1378L18.4701 16.4544L18.4701 16.4544L18.8571 16.1378ZM19.2026 16.6153L18.7462 16.8195L18.7462 16.8195L19.2026 16.6153ZM19.1574 17.5206L18.7236 17.2721L18.7236 17.2721L19.1574 17.5206ZM17.521 19.1571L17.2725 18.7232L17.2725 18.7232L17.521 19.1571ZM16.6158 19.2022L16.4118 19.6587L16.4118 19.6587L16.6158 19.2022ZM16.1381 18.8566L15.7846 19.2101L15.8022 19.2278L15.8215 19.2436L16.1381 18.8566ZM16.1381 18.8566L16.4917 18.503L16.474 18.4854L16.4547 18.4696L16.1381 18.8566ZM15.2769 18.2485L15.1307 18.7266L15.2769 18.2485ZM14.1015 18.7354L14.543 18.9701L14.1015 18.7354ZM13.9226 19.7745L13.425 19.7247V19.7247L13.9226 19.7745ZM13.8291 20.357L13.3621 20.1785L13.3621 20.1785L13.8291 20.357ZM13.1573 20.965L13.2885 21.4475H13.2885L13.1573 20.965ZM10.8428 20.965L10.7117 21.4475L10.7117 21.4475L10.8428 20.965ZM10.1709 20.3569L10.6379 20.1785L10.6379 20.1785L10.1709 20.3569ZM10.0775 19.7747L10.575 19.7249L10.0775 19.7747ZM9.89849 18.7357L10.34 18.501L9.89849 18.7357ZM8.72312 18.2488L8.57692 17.7707H8.57692L8.72312 18.2488ZM7.86188 18.857L7.54518 18.4699L7.53648 18.4773L7.86188 18.857ZM7.86187 18.857L8.17421 19.2474L8.18083 19.2421L8.18726 19.2366L7.86187 18.857ZM7.86186 18.857L7.54949 18.4665L7.54524 18.47L7.86186 18.857ZM7.38411 19.2027L7.18005 18.7462H7.18005L7.38411 19.2027ZM6.47903 19.1575L6.72751 18.7236L6.72751 18.7236L6.47903 19.1575ZM6.03805 18.766L6.3916 18.4125L6.03805 18.766ZM5.23395 17.9619L4.8804 18.3155H4.8804L5.23395 17.9619ZM4.84246 17.5209L4.40857 17.7694L4.40857 17.7694L4.84246 17.5209ZM4.79732 16.6159L5.25378 16.8199L5.25378 16.8199L4.79732 16.6159ZM5.14299 16.1381L4.7667 15.8089L4.76125 15.8151L4.75601 15.8215L5.14299 16.1381ZM5.14299 16.1381L5.51928 16.4674L5.52473 16.4611L5.52997 16.4547L5.14299 16.1381ZM5.75111 15.2769L6.22925 15.4231H6.22925L5.75111 15.2769ZM5.26424 14.1015L5.49895 13.66H5.49895L5.26424 14.1015ZM4.22529 13.9225L4.27504 13.425H4.27504L4.22529 13.9225ZM3.64308 13.8291L3.46461 14.2962H3.46461L3.64308 13.8291ZM3.03499 13.1572L3.51749 13.0261H3.51749L3.03499 13.1572ZM3.03501 10.8427L3.51751 10.9738H3.51751L3.03501 10.8427ZM3.64299 10.1709L3.8215 10.6379H3.8215L3.64299 10.1709ZM4.2254 10.0775V9.57746H4.20046L4.17565 9.57994L4.2254 10.0775ZM4.2254 10.0775V10.5775H4.25034L4.27516 10.575L4.2254 10.0775ZM5.2647 9.89841L5.02993 9.45695L5.2647 9.89841ZM5.75148 8.7232L6.22965 8.57705V8.57705L5.75148 8.7232ZM5.14315 7.86164L4.75617 8.17826L5.14315 7.86164ZM4.79731 7.38364L4.34083 7.58765H4.34083L4.79731 7.38364ZM4.84244 6.47877L4.40852 6.23035L4.40852 6.23035L4.84244 6.47877ZM5.2341 6.03758L5.58765 6.39113L5.58765 6.39113L5.2341 6.03758ZM6.03809 5.23359L5.68453 4.88004L5.68453 4.88004L6.03809 5.23359ZM6.03809 5.23359L5.68454 4.88004V4.88004L6.03809 5.23359ZM6.47907 4.84209L6.72755 5.27598H6.72755L6.47907 4.84209ZM7.38415 4.79695L7.58822 4.34049L7.58822 4.34049L7.38415 4.79695ZM7.86198 5.14269L8.18208 4.75856L8.1786 4.75571L7.86198 5.14269ZM7.86199 5.14269L7.54188 5.52682L7.54537 5.52967L7.86199 5.14269ZM8.72301 5.75072L8.86929 5.27259L8.86929 5.27259L8.72301 5.75072ZM9.8986 5.26377L10.3401 5.49843V5.49843L9.8986 5.26377ZM10.0775 4.22518L9.57996 4.17542V4.17542L10.0775 4.22518ZM10.1708 3.64316L9.70374 3.46474L9.70374 3.46474L10.1708 3.64316ZM10.8429 3.03496L10.7118 2.55244V2.55244L10.8429 3.03496ZM13.1572 3.03499L13.2883 2.55248L13.2883 2.55248L13.1572 3.03499ZM13.8291 3.64307L13.3621 3.82154L13.3621 3.82154L13.8291 3.64307ZM14.4225 4.22529V4.22528H13.4225V4.22529H14.4225ZM14.4184 4.16099L14.4184 4.16097L13.4267 4.28962L13.4267 4.28964L14.4184 4.16099ZM14.543 5.02953C14.5373 5.01882 14.5169 4.97127 14.4929 4.81847C14.4696 4.66959 14.4495 4.46978 14.4201 4.17557L13.425 4.27507C13.4533 4.55753 13.4763 4.79021 13.505 4.97315C13.533 5.15217 13.5732 5.33575 13.66 5.49895L14.543 5.02953ZM15.1307 5.27297C14.9018 5.34297 14.6554 5.2409 14.543 5.02953L13.66 5.49895C13.9971 6.13305 14.7364 6.43926 15.4231 6.22925L15.1307 5.27297ZM15.8215 4.75604C15.5926 4.94328 15.4371 5.07031 15.3153 5.1591C15.1904 5.25023 15.1423 5.26942 15.1307 5.27297L15.4231 6.22925C15.5999 6.1752 15.7581 6.07384 15.9045 5.96707C16.0541 5.85797 16.235 5.70975 16.4547 5.53L15.8215 4.75604ZM16.4117 4.34091C16.2139 4.42938 16.0343 4.58192 15.8215 4.75604L16.4547 5.53C16.7164 5.31586 16.7741 5.27428 16.8199 5.25382L16.4117 4.34091ZM17.7694 4.40863C17.3536 4.17052 16.8491 4.14535 16.4117 4.34091L16.8199 5.25382C16.9657 5.18864 17.1338 5.19703 17.2724 5.2764L17.7694 4.40863ZM18.3154 4.88042C18.121 4.68599 17.9575 4.51634 17.7694 4.40863L17.2724 5.2764C17.3159 5.30131 17.3692 5.34842 17.6083 5.58753L18.3154 4.88042ZM18.3356 4.9018L18.3356 4.90179L17.5882 5.56616L17.5882 5.56616L18.3356 4.9018ZM19.1195 5.68455L18.3154 4.88043L17.6083 5.58753L18.4124 6.39165L19.1195 5.68455ZM19.5913 6.23058C19.4836 6.04249 19.314 5.87899 19.1195 5.68455L18.4124 6.39165C18.6515 6.63077 18.6987 6.68405 18.7236 6.72755L19.5913 6.23058ZM19.6591 7.58824C19.8546 7.15084 19.8295 6.64635 19.5914 6.23058L18.7236 6.72754C18.8029 6.86613 18.8113 7.03429 18.7461 7.18009L19.6591 7.58824ZM19.2439 8.17851C19.418 7.96569 19.5706 7.78611 19.6591 7.58824L18.7461 7.18009C18.7257 7.22585 18.6841 7.28355 18.47 7.54527L19.2439 8.17851ZM18.727 8.86932C18.7305 8.85771 18.7497 8.80965 18.8408 8.68469C18.9296 8.56292 19.0567 8.40736 19.2439 8.17851L18.47 7.54527C18.2902 7.76499 18.142 7.94585 18.0329 8.09546C17.9261 8.24188 17.8247 8.40014 17.7707 8.5769L18.727 8.86932ZM18.9704 9.45701C18.759 9.34464 18.657 9.09823 18.727 8.86932L17.7707 8.5769C17.5607 9.26364 17.8669 10.0029 18.501 10.34L18.9704 9.45701ZM19.8244 9.57995C19.5302 9.55053 19.3304 9.53036 19.1815 9.50705C19.0287 9.48312 18.9811 9.46271 18.9704 9.45701L18.501 10.34C18.6642 10.4267 18.8478 10.467 19.0268 10.495C19.2098 10.5237 19.4425 10.5467 19.7249 10.575L19.8244 9.57995ZM20.5354 9.7038C20.3329 9.62643 20.0981 9.60731 19.8244 9.57995L19.7249 10.575C20.0614 10.6086 20.1316 10.62 20.1785 10.6379L20.5354 9.7038ZM21.4475 10.7117C21.3219 10.2493 20.983 9.87481 20.5354 9.7038L20.1785 10.6379C20.3277 10.6949 20.4406 10.8198 20.4825 10.9739L21.4475 10.7117ZM21.5 11.4314C21.5 11.1564 21.5044 10.9208 21.4475 10.7117L20.4825 10.9739C20.4956 11.0223 20.5 11.0932 20.5 11.4314H21.5ZM21.5 12.5687V11.4314H20.5V12.5687H21.5ZM21.4475 13.2882C21.5043 13.0791 21.5 12.8436 21.5 12.5687H20.5C20.5 12.9068 20.4957 12.9777 20.4825 13.0261L21.4475 13.2882ZM20.5353 14.2963C20.9829 14.1252 21.3219 13.7507 21.4475 13.2882L20.4825 13.0261C20.4406 13.1802 20.3276 13.3051 20.1784 13.3621L20.5353 14.2963ZM19.8245 14.42C20.0981 14.3927 20.3329 14.3736 20.5353 14.2963L20.1784 13.3621C20.1316 13.38 20.0614 13.3914 19.725 13.425L19.8245 14.42ZM18.9708 14.5429C18.9815 14.5372 19.0291 14.5168 19.1818 14.4929C19.3307 14.4696 19.5304 14.4495 19.8245 14.42L19.725 13.425C19.4426 13.4532 19.21 13.4763 19.0272 13.5049C18.8482 13.533 18.6647 13.5732 18.5016 13.6599L18.9708 14.5429ZM18.7273 15.1307C18.6573 14.9018 18.7594 14.6553 18.9708 14.5429L18.5016 13.6599C17.8672 13.9969 17.5609 14.7364 17.7711 15.4233L18.7273 15.1307ZM19.2441 15.8212C19.0569 15.5925 18.9299 15.437 18.8412 15.3153C18.7501 15.1904 18.7309 15.1423 18.7273 15.1307L17.7711 15.4233C17.8252 15.6 17.9265 15.7582 18.0332 15.9045C18.1423 16.0541 18.2904 16.2348 18.4701 16.4544L19.2441 15.8212ZM19.659 16.4112C19.5706 16.2134 19.4181 16.0339 19.2441 15.8212L18.4701 16.4544C18.6841 16.7161 18.7257 16.7737 18.7462 16.8195L19.659 16.4112ZM19.5913 17.7692C19.8295 17.3533 19.8547 16.8487 19.659 16.4112L18.7462 16.8195C18.8114 16.9653 18.803 17.1335 18.7236 17.2721L19.5913 17.7692ZM19.1197 18.3149C19.314 18.1206 19.4836 17.9572 19.5913 17.7692L18.7236 17.2721C18.6987 17.3156 18.6516 17.3688 18.4126 17.6078L19.1197 18.3149ZM19.1197 18.3149L19.1197 18.3149L18.4126 17.6078L18.4126 17.6078L19.1197 18.3149ZM18.3155 19.1192L19.1197 18.3149L18.4126 17.6078L17.6083 18.4121L18.3155 19.1192ZM17.7694 19.591C17.9575 19.4833 18.121 19.3136 18.3155 19.1192L17.6083 18.4121C17.3692 18.6512 17.316 18.6983 17.2725 18.7232L17.7694 19.591ZM16.4118 19.6587C16.8492 19.8542 17.3537 19.8291 17.7694 19.591L17.2725 18.7232C17.1339 18.8026 16.9657 18.811 16.8199 18.7458L16.4118 19.6587ZM15.8215 19.2436C16.0343 19.4177 16.2139 19.5702 16.4118 19.6587L16.8199 18.7458C16.7742 18.7253 16.7165 18.6837 16.4547 18.4696L15.8215 19.2436ZM15.7846 19.2101L15.7846 19.2101L16.4917 18.503L16.4917 18.503L15.7846 19.2101ZM15.1307 18.7266C15.1423 18.7302 15.1904 18.7494 15.3153 18.8405C15.4371 18.9293 15.5927 19.0563 15.8215 19.2436L16.4547 18.4696C16.235 18.2898 16.0542 18.1416 15.9046 18.0325C15.7582 17.9258 15.5999 17.8244 15.4232 17.7703L15.1307 18.7266ZM14.543 18.9701C14.6554 18.7587 14.9018 18.6566 15.1307 18.7266L15.4232 17.7703C14.7364 17.5603 13.9972 17.8665 13.66 18.5006L14.543 18.9701ZM14.4201 19.8242C14.4495 19.53 14.4697 19.3301 14.493 19.1812C14.5169 19.0283 14.5373 18.9808 14.543 18.9701L13.66 18.5006C13.5733 18.6639 13.533 18.8475 13.505 19.0265C13.4764 19.2095 13.4533 19.4422 13.425 19.7247L14.4201 19.8242ZM14.2962 20.5355C14.3736 20.333 14.3927 20.098 14.4201 19.8242L13.425 19.7247C13.3914 20.0614 13.38 20.1317 13.3621 20.1785L14.2962 20.5355ZM13.2885 21.4475C13.7507 21.3218 14.1251 20.983 14.2962 20.5355L13.3621 20.1785C13.3051 20.3277 13.1802 20.4406 13.0262 20.4825L13.2885 21.4475ZM12.5685 21.5C12.8435 21.5 13.0792 21.5044 13.2885 21.4475L13.0262 20.4825C12.9778 20.4956 12.9068 20.5 12.5685 20.5V21.5ZM11.4314 21.5H12.5685V20.5H11.4314V21.5ZM10.7117 21.4475C10.9208 21.5044 11.1564 21.5 11.4314 21.5V20.5C11.0932 20.5 11.0223 20.4956 10.9739 20.4825L10.7117 21.4475ZM9.7038 20.5354C9.87481 20.983 10.2493 21.3219 10.7117 21.4475L10.9739 20.4825C10.8198 20.4406 10.6949 20.3277 10.6379 20.1785L9.7038 20.5354ZM9.57995 19.8244C9.60731 20.0981 9.62643 20.3329 9.7038 20.5354L10.6379 20.1785C10.62 20.1316 10.6086 20.0614 10.575 19.7249L9.57995 19.8244ZM9.45701 18.9704C9.46271 18.9811 9.48312 19.0287 9.50705 19.1815C9.53036 19.3304 9.55053 19.5302 9.57995 19.8244L10.575 19.7249C10.5467 19.4425 10.5237 19.2098 10.495 19.0268C10.467 18.8478 10.4267 18.6642 10.34 18.501L9.45701 18.9704ZM8.86932 18.727C9.09823 18.657 9.34464 18.7591 9.45701 18.9704L10.34 18.501C10.0029 17.8669 9.26365 17.5607 8.57692 17.7707L8.86932 18.727ZM8.1785 19.2439C8.40736 19.0567 8.56292 18.9297 8.68469 18.8409C8.80965 18.7497 8.85772 18.7305 8.86932 18.727L8.57692 17.7707C8.40015 17.8247 8.24188 17.9261 8.09547 18.0329C7.94585 18.142 7.76498 18.2902 7.54526 18.47L8.1785 19.2439ZM8.18726 19.2366L8.18727 19.2366L7.53648 18.4773L7.53647 18.4773L8.18726 19.2366ZM8.17421 19.2474L8.17421 19.2474L7.54952 18.4665L7.54951 18.4665L8.17421 19.2474ZM7.58818 19.6591C7.78606 19.5706 7.96565 19.4181 8.17848 19.244L7.54524 18.47C7.28351 18.6841 7.22581 18.7257 7.18005 18.7462L7.58818 19.6591ZM6.23056 19.5914C6.64632 19.8295 7.15079 19.8546 7.58818 19.6591L7.18005 18.7462C7.03425 18.8114 6.86609 18.803 6.72751 18.7236L6.23056 19.5914ZM5.68449 19.1196C5.87894 19.314 6.04246 19.4837 6.23056 19.5914L6.72751 18.7236C6.68401 18.6987 6.63073 18.6516 6.3916 18.4125L5.68449 19.1196ZM4.8804 18.3155L5.68449 19.1196L6.3916 18.4125L5.58751 17.6084L4.8804 18.3155ZM4.40857 17.7694C4.51629 17.9575 4.68596 18.121 4.8804 18.3155L5.58751 17.6084C5.34838 17.3692 5.30126 17.316 5.27635 17.2725L4.40857 17.7694ZM4.34086 16.4118C4.14532 16.8492 4.17048 17.3537 4.40857 17.7694L5.27635 17.2725C5.19699 17.1339 5.1886 16.9657 5.25378 16.8199L4.34086 16.4118ZM4.75601 15.8215C4.58188 16.0343 4.42933 16.2139 4.34086 16.4118L5.25378 16.8199C5.27424 16.7742 5.31582 16.7165 5.52997 16.4547L4.75601 15.8215ZM4.76671 15.8089L4.7667 15.8089L5.51928 16.4674L5.51928 16.4674L4.76671 15.8089ZM5.27296 15.1307C5.26941 15.1423 5.25023 15.1903 5.15909 15.3153C5.0703 15.4371 4.94326 15.5926 4.75602 15.8215L5.52997 16.4547C5.70974 16.235 5.85796 16.0541 5.96706 15.9045C6.07384 15.7581 6.1752 15.5999 6.22925 15.4231L5.27296 15.1307ZM5.02953 14.543C5.24089 14.6554 5.34296 14.9018 5.27296 15.1307L6.22925 15.4231C6.43925 14.7364 6.13305 13.9971 5.49895 13.66L5.02953 14.543ZM4.17554 14.42C4.46976 14.4495 4.66958 14.4696 4.81846 14.4929C4.97126 14.5169 5.01881 14.5373 5.02953 14.543L5.49895 13.66C5.33575 13.5732 5.15217 13.533 4.97314 13.505C4.7902 13.4763 4.55751 13.4533 4.27504 13.425L4.17554 14.42ZM3.46461 14.2962C3.66709 14.3736 3.90193 14.3927 4.17554 14.42L4.27504 13.425C3.93856 13.3914 3.86836 13.38 3.82154 13.3621L3.46461 14.2962ZM2.55248 13.2883C2.67811 13.7507 3.01705 14.1252 3.46461 14.2962L3.82154 13.3621C3.67235 13.3051 3.55937 13.1802 3.51749 13.0261L2.55248 13.2883ZM2.5 12.5686C2.5 12.8436 2.49565 13.0792 2.55248 13.2883L3.51749 13.0261C3.50435 12.9777 3.5 12.9068 3.5 12.5686H2.5ZM2.5 11.4315V12.5686H3.5V11.4315H2.5ZM2.55252 10.7116C2.49565 10.9208 2.5 11.1564 2.5 11.4315H3.5C3.5 11.0932 3.50435 11.0222 3.51751 10.9738L2.55252 10.7116ZM3.46449 9.70384C3.01703 9.87485 2.67816 10.2493 2.55252 10.7116L3.51751 10.9738C3.55939 10.8198 3.67234 10.6949 3.8215 10.6379L3.46449 9.70384ZM4.17565 9.57994C3.90195 9.60731 3.66702 9.62643 3.46449 9.70384L3.8215 10.6379C3.86833 10.62 3.93855 10.6086 4.27515 10.575L4.17565 9.57994ZM4.2254 9.57746H4.2254V10.5775H4.2254V9.57746ZM5.02993 9.45695C5.0192 9.46265 4.97164 9.48308 4.81879 9.50701C4.66986 9.53033 4.46997 9.55051 4.17565 9.57994L4.27516 10.575C4.55772 10.5467 4.79049 10.5236 4.97349 10.495C5.15257 10.4669 5.33622 10.4267 5.49947 10.3399L5.02993 9.45695ZM5.27332 8.86935C5.34327 9.09822 5.24123 9.34458 5.02993 9.45695L5.49947 10.3399C6.13338 10.0027 6.43951 9.26368 6.22965 8.57705L5.27332 8.86935ZM4.75617 8.17826C4.94349 8.4072 5.07058 8.56283 5.15941 8.68464C5.25058 8.80966 5.26977 8.85774 5.27332 8.86935L6.22965 8.57705C6.1756 8.40022 6.0742 8.2419 5.96739 8.09543C5.85824 7.94576 5.70997 7.76482 5.53013 7.54502L4.75617 8.17826ZM4.34083 7.58765C4.42931 7.78564 4.58195 7.96532 4.75617 8.17826L5.53013 7.54502C5.31586 7.28314 5.27426 7.22541 5.2538 7.17962L4.34083 7.58765ZM4.40852 6.23035C4.17054 6.64602 4.14539 7.15036 4.34083 7.58765L5.2538 7.17962C5.18865 7.03386 5.19704 6.86575 5.27636 6.72719L4.40852 6.23035ZM4.88055 5.68403C4.68601 5.87856 4.51627 6.04215 4.40852 6.23035L5.27636 6.72719C5.30128 6.68367 5.34842 6.63037 5.58765 6.39113L4.88055 5.68403ZM5.68453 4.88004L4.88055 5.68403L5.58765 6.39113L6.39164 5.58714L5.68453 4.88004ZM5.68454 4.88004L5.68453 4.88004L6.39164 5.58714L6.39164 5.58714L5.68454 4.88004ZM6.2306 4.4082C6.0425 4.51592 5.87898 4.68559 5.68454 4.88004L6.39164 5.58714C6.63078 5.34801 6.68405 5.30089 6.72755 5.27598L6.2306 4.4082ZM7.58822 4.34049C7.15083 4.14495 6.64636 4.17011 6.2306 4.4082L6.72755 5.27598C6.86613 5.19662 7.03429 5.18823 7.18009 5.25341L7.58822 4.34049ZM8.1786 4.75571C7.96572 4.58154 7.78611 4.42896 7.58822 4.34049L7.18009 5.25341C7.22585 5.27387 7.28356 5.31547 7.54536 5.52966L8.1786 4.75571ZM8.18208 4.75858L8.18207 4.75858L7.54188 5.5268L7.54189 5.5268L8.18208 4.75858ZM8.86929 5.27259C8.8577 5.26905 8.80965 5.24986 8.6847 5.15873C8.56296 5.06995 8.40742 4.94293 8.1786 4.75571L7.54537 5.52967C7.76504 5.70941 7.94587 5.8576 8.09545 5.96669C8.24182 6.07344 8.40004 6.17479 8.57674 6.22884L8.86929 5.27259ZM9.45708 5.02912C9.34472 5.24055 9.09824 5.34264 8.86929 5.27259L8.57674 6.22884C9.2636 6.43898 10.003 6.1327 10.3401 5.49843L9.45708 5.02912ZM9.57996 4.17542C9.55055 4.46954 9.53039 4.66929 9.50709 4.81813C9.48318 4.97087 9.46278 5.01841 9.45708 5.02912L10.3401 5.49843C10.4268 5.33527 10.467 5.15175 10.4951 4.97278C10.5237 4.78991 10.5468 4.5573 10.575 4.27493L9.57996 4.17542ZM9.70374 3.46474C9.62642 3.66715 9.60732 3.90191 9.57996 4.17542L10.575 4.27493C10.6086 3.93856 10.62 3.86839 10.6379 3.82158L9.70374 3.46474ZM10.7118 2.55244C10.2494 2.67805 9.87474 3.01707 9.70374 3.46474L10.6379 3.82158C10.6949 3.67236 10.8198 3.55935 10.9739 3.51748L10.7118 2.55244ZM11.4313 2.5C11.1564 2.5 10.9209 2.49565 10.7118 2.55244L10.9739 3.51748C11.0223 3.50435 11.0932 3.5 11.4313 3.5V2.5ZM12.5686 2.5H11.4313V3.5H12.5686V2.5ZM13.2883 2.55248C13.0792 2.49565 12.8436 2.5 12.5686 2.5V3.5C12.9068 3.5 12.9777 3.50435 13.0261 3.51749L13.2883 2.55248ZM14.2962 3.46461C14.1252 3.01705 13.7507 2.67811 13.2883 2.55248L13.0261 3.51749C13.1802 3.55937 13.3051 3.67235 13.3621 3.82154L14.2962 3.46461ZM14.42 4.17553C14.3927 3.90193 14.3736 3.66708 14.2962 3.46461L13.3621 3.82154C13.38 3.86836 13.3914 3.93856 13.425 4.27504L14.42 4.17553ZM15.1 12C15.1 13.7121 13.7121 15.1 12 15.1V16.1C14.2644 16.1 16.1 14.2644 16.1 12H15.1ZM12 8.9C13.7121 8.9 15.1 10.2879 15.1 12H16.1C16.1 9.73563 14.2644 7.9 12 7.9V8.9ZM8.9 12C8.9 10.2879 10.2879 8.9 12 8.9V7.9C9.73563 7.9 7.9 9.73563 7.9 12H8.9ZM12 15.1C10.2879 15.1 8.9 13.7121 8.9 12H7.9C7.9 14.2644 9.73563 16.1 12 16.1V15.1Z" fill="white"/>
</svg>
